<?xml version="1.0" standalone="no"?>
<!DOCTYPE svg PUBLIC "-//W3C//DTD SVG 20010904//EN"
 "http://www.w3.org/TR/2001/REC-SVG-20010904/DTD/svg10.dtd">
<svg version="1.0" xmlns="http://www.w3.org/2000/svg"
 width="260.000000pt" height="260.000000pt" viewBox="0 0 260.000000 260.000000"
 preserveAspectRatio="xMidYMid meet">
<metadata>
Created by potrace 1.14, written by Peter Selinger 2001-2017
</metadata>
<g transform="translate(0.000000,260.000000) scale(0.100000,-0.100000)"
fill="#000000" stroke="none">
<path d="M585 2251 c-88 -25 -181 -78 -242 -138 -54 -54 -123 -152 -123 -176
0 -7 -4 -17 -9 -22 -5 -6 -16 -37 -25 -70 -13 -51 -15 -134 -13 -565 2 -278 6
-518 10 -535 4 -16 25 -67 47 -111 65 -134 174 -229 330 -290 40 -15 95 -18
463 -21 l418 -4 -5 82 c-3 45 -10 96 -15 113 -5 17 -12 49 -14 71 -5 44 -10
59 -38 121 -10 23 -21 54 -25 68 -7 28 -26 30 -109 7 -22 -6 -65 -13 -95 -15
-30 -3 -55 -6 -55 -7 0 -4 -181 -5 -189 -1 -5 3 -23 6 -40 8 -134 12 -262 93
-285 181 -11 39 -7 126 6 146 4 7 8 18 9 24 5 29 71 122 128 179 55 55 166
145 191 155 6 2 26 14 45 26 19 12 39 22 44 22 5 -1 12 3 15 8 15 21 252 123
321 138 8 2 42 10 75 19 114 29 235 43 351 39 83 -3 139 -8 139 -12 0 -2 8 -4
18 -6 97 -18 193 -86 221 -157 16 -39 20 -110 7 -133 -3 -5 -6 -16 -7 -23 -7
-42 -63 -128 -126 -193 -81 -83 -134 -129 -146 -129 -5 0 -21 -11 -36 -24 -28
-23 -64 -44 -161 -94 -27 -14 -52 -27 -54 -28 -2 -2 11 -26 28 -55 18 -28 40
-72 50 -98 24 -60 51 -235 54 -345 l2 -87 99 2 c55 1 126 8 159 15 191 45 356
207 408 404 15 57 18 122 18 546 1 536 0 552 -64 681 -32 64 -101 146 -169
201 -31 25 -160 80 -215 91 -36 8 -254 11 -695 10 -573 -1 -647 -3 -701 -18z"/>
</g>
</svg>
